<svg width="116" height="144" fill="none" xmlns="http://www.w3.org/2000/svg">
    <path
        d="M7.97 52.956h14.35V1.786H.76v12.88h7.21v38.29Zm21.33-26.32c0 15.33 5.6 26.04 20.3 26.04 14.7 0 20.37-10.71 20.37-26.04 0-15.12-5.67-25.9-20.37-25.9-14.7 0-20.3 10.78-20.3 25.9Zm27.09 0c0 7.28-.7 13.09-6.79 13.09s-6.79-5.81-6.79-13.09c0-7.07.7-12.95 6.79-12.95s6.79 5.88 6.79 12.95Zm22.696-24.85v30.94h13.37c.28-1.75 1.75-3.29 4.41-3.29 3.29 0 5.18 1.89 5.18 5.6 0 3.57-1.54 6.16-4.97 6.16-3.36 0-4.69-2.1-4.9-3.99h-13.37c.07 9.17 6.93 15.75 18.83 15.75 11.2 0 17.71-6.72 17.71-17.71 0-8.54-4.48-16.66-15.05-16.66-3.78 0-7 1.26-8.75 3.08v-7.77h21V1.786h-33.46ZM5.77 83.736v-2.4h-4.2v24.54h4.2v-10.29c1.02 1.35 2.88 2.64 5.49 2.64 4.26 0 7.59-3.45 7.59-8.64s-3.33-8.52-7.59-8.52c-2.58 0-4.5 1.26-5.49 2.67Zm8.79 5.85c0 3.15-2.13 4.95-4.41 4.95-2.25 0-4.38-1.74-4.38-4.89 0-3.15 2.13-4.89 4.38-4.89 2.28 0 4.41 1.68 4.41 4.83Zm11.542.09c0-3.21 1.5-4.17 3.99-4.17h1.11v-4.41c-2.31 0-4.05 1.11-5.1 2.82v-2.58h-4.2v16.62h4.2v-8.28Zm23.979-.03c0-5.25-3.75-8.58-8.55-8.58-4.8 0-8.55 3.33-8.55 8.58 0 5.22 3.63 8.58 8.43 8.58 4.83 0 8.67-3.36 8.67-8.58Zm-12.84 0c0-3.33 2.01-4.92 4.23-4.92 2.22 0 4.29 1.59 4.29 4.92 0 3.3-2.13 4.92-4.35 4.92-2.25 0-4.17-1.62-4.17-4.92Zm18.05-10.29c1.47 0 2.55-1.08 2.55-2.46s-1.08-2.46-2.55-2.46c-1.53 0-2.61 1.08-2.61 2.46s1.08 2.46 2.61 2.46Zm-2.13 1.98v19.38c0 1.11-.45 1.59-1.74 1.59h-1.2v3.57h1.86c3.21 0 5.28-1.35 5.28-5.19v-19.35h-4.2Zm15.49 3.18c2.16 0 3.9 1.38 3.96 3.57h-7.89c.33-2.28 1.92-3.57 3.93-3.57Zm7.89 8.22h-4.53c-.54 1.11-1.53 2.01-3.33 2.01-2.1 0-3.78-1.38-3.99-3.84h12.15c.09-.54.12-1.08.12-1.62 0-4.95-3.39-8.22-8.19-8.22-4.92 0-8.34 3.33-8.34 8.58 0 5.22 3.51 8.58 8.34 8.58 4.11 0 6.87-2.43 7.77-5.49Zm2.406-3.09c0 5.22 3.42 8.58 8.22 8.58 4.14 0 6.93-2.34 7.83-5.88h-4.53c-.51 1.5-1.59 2.28-3.33 2.28-2.34 0-3.9-1.74-3.9-4.98s1.56-5.01 3.9-5.01c1.74 0 2.85.9 3.33 2.31h4.53c-.9-3.72-3.69-5.88-7.83-5.88-4.8 0-8.22 3.36-8.22 8.58Zm19.787 3.15c0 3.81 2.13 5.16 5.31 5.16h2.64v-3.54h-1.95c-1.32 0-1.77-.48-1.77-1.59v-8.04h3.72v-3.45h-3.72v-4.11h-4.23v4.11h-1.98v3.45h1.98v8.01ZM.49 134.586c0 5.19 3.36 8.64 7.59 8.64 2.61 0 4.47-1.2 5.46-2.73v2.46h4.26v-22.2h-4.26v7.89c-1.14-1.56-3.24-2.58-5.43-2.58-4.26 0-7.62 3.33-7.62 8.52Zm13.08.06c0 3.15-2.1 4.89-4.41 4.89-2.25 0-4.38-1.8-4.38-4.95 0-3.15 2.13-4.83 4.38-4.83 2.31 0 4.41 1.74 4.41 4.89Zm24.382 0c0-5.25-3.75-8.58-8.55-8.58-4.8 0-8.55 3.33-8.55 8.58 0 5.22 3.63 8.58 8.43 8.58 4.83 0 8.67-3.36 8.67-8.58Zm-12.84 0c0-3.33 2.01-4.92 4.23-4.92 2.22 0 4.29 1.59 4.29 4.92 0 3.3-2.13 4.92-4.35 4.92-2.25 0-4.17-1.62-4.17-4.92Zm27.56 8.31h4.2v-9.75c0-4.59-2.76-7.11-6.63-7.11-2.13 0-3.93.9-5.01 2.31v-2.07h-4.2v16.62h4.2v-9.18c0-2.67 1.47-4.11 3.75-4.11 2.22 0 3.69 1.44 3.69 4.11v9.18Zm15.335-13.44c2.16 0 3.9 1.38 3.96 3.57h-7.89c.33-2.28 1.92-3.57 3.93-3.57Zm7.89 8.22h-4.53c-.54 1.11-1.53 2.01-3.33 2.01-2.1 0-3.78-1.38-3.99-3.84h12.15c.09-.54.12-1.08.12-1.62 0-4.95-3.39-8.22-8.19-8.22-4.92 0-8.34 3.33-8.34 8.58 0 5.22 3.51 8.58 8.34 8.58 4.11 0 6.87-2.43 7.77-5.49Z"
        fill="#58A9A5" />
</svg>