<svg width="203" height="151" fill="none" xmlns="http://www.w3.org/2000/svg">
    <path
        d="M7.97 52.956h14.35V1.786H.76v12.88h7.21v38.29Zm21.33-26.32c0 15.33 5.6 26.04 20.3 26.04 14.7 0 20.37-10.71 20.37-26.04 0-15.12-5.67-25.9-20.37-25.9-14.7 0-20.3 10.78-20.3 25.9Zm27.09 0c0 7.28-.7 13.09-6.79 13.09s-6.79-5.81-6.79-13.09c0-7.07.7-12.95 6.79-12.95s6.79 5.88 6.79 12.95Zm30.256-15.68v11.69h-11.34v12.39h11.34v11.62h13.16v-11.62h11.27v-12.39h-11.27v-11.69h-13.16ZM5.77 83.766v-8.01h-4.2v22.2h4.2v-2.37c1.02 1.44 2.88 2.64 5.49 2.64 4.26 0 7.59-3.45 7.59-8.64s-3.33-8.52-7.59-8.52c-2.52 0-4.47 1.17-5.49 2.7Zm8.79 5.82c0 3.15-2.13 4.95-4.41 4.95-2.25 0-4.38-1.74-4.38-4.89 0-3.15 2.13-4.89 4.38-4.89 2.28 0 4.41 1.68 4.41 4.83Zm7.342 8.37h4.2v-16.62h-4.2v16.62Zm2.13-18.6c1.47 0 2.58-1.08 2.58-2.46s-1.11-2.46-2.58-2.46c-1.5 0-2.58 1.08-2.58 2.46s1.08 2.46 2.58 2.46Zm5.14 10.23c0 5.19 3.36 8.64 7.59 8.64 2.61 0 4.5-1.29 5.49-2.73v2.58c0 3.09-1.8 4.41-4.11 4.41-2.1 0-3.66-.99-4.08-2.49h-4.17c.42 3.81 3.69 6.15 8.37 6.15 5.46 0 8.22-3.57 8.22-8.07v-16.74h-4.23v2.37c-.99-1.44-2.88-2.64-5.49-2.64-4.23 0-7.59 3.33-7.59 8.52Zm13.08.06c0 3.15-2.1 4.89-4.41 4.89-2.25 0-4.38-1.8-4.38-4.95 0-3.15 2.13-4.83 4.38-4.83 2.31 0 4.41 1.74 4.41 4.89Zm14.4 0c0 5.22 3.42 8.58 8.22 8.58 4.14 0 6.93-2.34 7.83-5.88h-4.53c-.51 1.5-1.59 2.28-3.33 2.28-2.34 0-3.9-1.74-3.9-4.98s1.56-5.01 3.9-5.01c1.74 0 2.85.9 3.33 2.31h4.53c-.9-3.72-3.69-5.88-7.83-5.88-4.8 0-8.22 3.36-8.22 8.58Zm35.177 0c0-5.25-3.75-8.58-8.55-8.58-4.8 0-8.55 3.33-8.55 8.58 0 5.22 3.63 8.58 8.43 8.58 4.83 0 8.67-3.36 8.67-8.58Zm-12.84 0c0-3.33 2.01-4.92 4.23-4.92 2.22 0 4.29 1.59 4.29 4.92 0 3.3-2.13 4.92-4.35 4.92-2.25 0-4.17-1.62-4.17-4.92Zm39.171 8.31h4.2v-9.75c0-4.59-2.82-7.11-6.81-7.11-2.43 0-4.62 1.29-5.7 3.18-1.14-2.07-3.27-3.18-5.85-3.18-2.07 0-3.84.87-4.89 2.25v-2.01h-4.2v16.62h4.2v-9.18c0-2.64 1.47-4.02 3.75-4.02 2.22 0 3.69 1.38 3.69 4.02v9.18h4.2v-9.18c0-2.64 1.47-4.02 3.72-4.02 2.22 0 3.69 1.38 3.69 4.02v9.18Zm12.385-14.22v-2.4h-4.2v24.54h4.2v-10.29c1.02 1.35 2.88 2.64 5.49 2.64 4.26 0 7.59-3.45 7.59-8.64s-3.33-8.52-7.59-8.52c-2.58 0-4.5 1.26-5.49 2.67Zm8.79 5.85c0 3.15-2.13 4.95-4.41 4.95-2.25 0-4.38-1.74-4.38-4.89 0-3.15 2.13-4.89 4.38-4.89 2.28 0 4.41 1.68 4.41 4.83Zm6.262 0c0 5.19 3.36 8.64 7.56 8.64 2.64 0 4.53-1.26 5.52-2.7v2.43h4.23v-16.62h-4.23v2.37c-.99-1.38-2.82-2.64-5.49-2.64-4.23 0-7.59 3.33-7.59 8.52Zm13.08.06c0 3.15-2.1 4.89-4.41 4.89-2.25 0-4.38-1.8-4.38-4.95 0-3.15 2.13-4.83 4.38-4.83 2.31 0 4.41 1.74 4.41 4.89Zm19.972 8.31h4.2v-9.75c0-4.59-2.76-7.11-6.63-7.11-2.13 0-3.93.9-5.01 2.31v-2.07h-4.2v16.62h4.2v-9.18c0-2.67 1.47-4.11 3.75-4.11 2.22 0 3.69 1.44 3.69 4.11v9.18Zm15.274-5.01-4.29-11.61h-4.71l6.66 16.2-3.6 8.28h4.47l10.29-24.48h-4.47l-4.35 11.61ZM5.77 128.736v-2.4h-4.2v24.54h4.2v-10.29c1.02 1.35 2.88 2.64 5.49 2.64 4.26 0 7.59-3.45 7.59-8.64s-3.33-8.52-7.59-8.52c-2.58 0-4.5 1.26-5.49 2.67Zm8.79 5.85c0 3.15-2.13 4.95-4.41 4.95-2.25 0-4.38-1.74-4.38-4.89 0-3.15 2.13-4.89 4.38-4.89 2.28 0 4.41 1.68 4.41 4.83Zm6.262 0c0 5.19 3.36 8.64 7.56 8.64 2.64 0 4.53-1.26 5.52-2.7v2.43h4.23v-16.62h-4.23v2.37c-.99-1.38-2.82-2.64-5.49-2.64-4.23 0-7.59 3.33-7.59 8.52Zm13.08.06c0 3.15-2.1 4.89-4.41 4.89-2.25 0-4.38-1.8-4.38-4.95 0-3.15 2.13-4.83 4.38-4.83 2.31 0 4.41 1.74 4.41 4.89Zm12.532.03c0-3.21 1.5-4.17 3.99-4.17h1.11v-4.41c-2.31 0-4.05 1.11-5.1 2.82v-2.58h-4.2v16.62h4.2v-8.28Zm8.589 3.12c0 3.81 2.13 5.16 5.31 5.16h2.64v-3.54h-1.95c-1.32 0-1.77-.48-1.77-1.59v-8.04h3.72v-3.45h-3.72v-4.11h-4.23v4.11h-1.98v3.45h1.98v8.01Zm22.61 5.16h4.2v-9.75c0-4.59-2.76-7.11-6.63-7.11-2.13 0-3.93.9-5.01 2.31v-2.07h-4.2v16.62h4.2v-9.18c0-2.67 1.47-4.11 3.75-4.11 2.22 0 3.69 1.44 3.69 4.11v9.18Zm15.335-13.44c2.16 0 3.9 1.38 3.96 3.57h-7.89c.33-2.28 1.92-3.57 3.93-3.57Zm7.89 8.22h-4.53c-.54 1.11-1.53 2.01-3.33 2.01-2.1 0-3.78-1.38-3.99-3.84h12.15c.09-.54.12-1.08.12-1.62 0-4.95-3.39-8.22-8.19-8.22-4.92 0-8.34 3.33-8.34 8.58 0 5.22 3.51 8.58 8.34 8.58 4.11 0 6.87-2.43 7.77-5.49Zm7.685-3.06c0-3.21 1.5-4.17 3.99-4.17h1.11v-4.41c-2.31 0-4.05 1.11-5.1 2.82v-2.58h-4.2v16.62h4.2v-8.28Zm20.829 3.54c-.12-6.09-9.33-4.2-9.33-7.23 0-.96.81-1.59 2.37-1.59 1.65 0 2.67.87 2.79 2.16h4.02c-.24-3.3-2.67-5.49-6.69-5.49-4.11 0-6.57 2.22-6.57 4.98 0 6.09 9.39 4.2 9.39 7.17 0 .96-.9 1.71-2.55 1.71-1.68 0-2.85-.96-3-2.22h-4.23c.18 3.09 3.09 5.52 7.26 5.52 4.05 0 6.54-2.16 6.54-5.01Zm3.448 4.74h4.2v-9.18c0-2.67 1.47-4.11 3.75-4.11 2.22 0 3.69 1.44 3.69 4.11v9.18h4.2v-9.75c0-4.59-2.73-7.11-6.48-7.11-2.22 0-4.08.9-5.16 2.31v-7.65h-4.2v22.2Zm19.834 0h4.2v-16.62h-4.2v16.62Zm2.13-18.6c1.47 0 2.58-1.08 2.58-2.46s-1.11-2.46-2.58-2.46c-1.5 0-2.58 1.08-2.58 2.46s1.08 2.46 2.58 2.46Zm10.42 4.38v-2.4h-4.2v24.54h4.2v-10.29c1.02 1.35 2.88 2.64 5.49 2.64 4.26 0 7.59-3.45 7.59-8.64s-3.33-8.52-7.59-8.52c-2.58 0-4.5 1.26-5.49 2.67Zm8.79 5.85c0 3.15-2.13 4.95-4.41 4.95-2.25 0-4.38-1.74-4.38-4.89 0-3.15 2.13-4.89 4.38-4.89 2.28 0 4.41 1.68 4.41 4.83Z"
        fill="#58A9A5" />
</svg>