<svg width="169" height="151" fill="none" xmlns="http://www.w3.org/2000/svg">
    <path
        d="M8.97 52.956h14.35V1.786H1.76v12.88h7.21v38.29Zm20.91-.7h35.7v-11.13h-17.5c8.19-5.67 17.01-14.42 17.01-25.06 0-8.4-4.83-15.33-17.01-15.33-9.45 0-17.92 5.25-18.34 18.27h13.3c-.14-4.55 1.61-6.72 4.2-6.72 2.66 0 3.99 1.82 3.99 4.76 0 7.98-10.92 16.73-21.35 24.92v10.29ZM9.65 92.946l-4.29-11.61H.65l6.66 16.2-3.6 8.28h4.47l10.29-24.48H14l-4.35 11.61Zm18.224-8.43c2.16 0 3.9 1.38 3.96 3.57h-7.89c.33-2.28 1.92-3.57 3.93-3.57Zm7.89 8.22h-4.53c-.54 1.11-1.53 2.01-3.33 2.01-2.1 0-3.78-1.38-3.99-3.84h12.15c.09-.54.12-1.08.12-1.62 0-4.95-3.39-8.22-8.19-8.22-4.92 0-8.34 3.33-8.34 8.58 0 5.22 3.51 8.58 8.34 8.58 4.11 0 6.87-2.43 7.77-5.49Zm2.406-3.15c0 5.19 3.36 8.64 7.56 8.64 2.64 0 4.53-1.26 5.52-2.7v2.43h4.23v-16.62h-4.23v2.37c-.99-1.38-2.82-2.64-5.49-2.64-4.23 0-7.59 3.33-7.59 8.52Zm13.08.06c0 3.15-2.1 4.89-4.41 4.89-2.25 0-4.38-1.8-4.38-4.95 0-3.15 2.13-4.83 4.38-4.83 2.31 0 4.41 1.74 4.41 4.89Zm12.532.03c0-3.21 1.5-4.17 3.99-4.17h1.11v-4.41c-2.31 0-4.05 1.11-5.1 2.82v-2.58h-4.2v16.62h4.2v-8.28Zm20.829 3.54c-.12-6.09-9.33-4.2-9.33-7.23 0-.96.81-1.59 2.37-1.59 1.65 0 2.67.87 2.79 2.16h4.02c-.24-3.3-2.67-5.49-6.69-5.49-4.11 0-6.57 2.22-6.57 4.98 0 6.09 9.39 4.2 9.39 7.17 0 .96-.9 1.71-2.55 1.71-1.68 0-2.85-.96-3-2.22h-4.23c.18 3.09 3.09 5.52 7.26 5.52 4.05 0 6.54-2.16 6.54-5.01Zm26.646-3.57c0-5.25-3.75-8.58-8.55-8.58-4.8 0-8.55 3.33-8.55 8.58 0 5.22 3.63 8.58 8.43 8.58 4.83 0 8.67-3.36 8.67-8.58Zm-12.84 0c0-3.33 2.01-4.92 4.23-4.92 2.22 0 4.29 1.59 4.29 4.92 0 3.3-2.13 4.92-4.35 4.92-2.25 0-4.17-1.62-4.17-4.92Zm16.371 8.31h4.26v-13.17h2.91v-3.45h-2.91v-.69c0-1.86.69-2.52 2.73-2.46v-3.54c-4.68-.12-6.99 1.77-6.99 5.85v.84h-1.89v3.45h1.89v13.17ZM9.71 129.516c2.16 0 3.9 1.38 3.96 3.57H5.78c.33-2.28 1.92-3.57 3.93-3.57Zm7.89 8.22h-4.53c-.54 1.11-1.53 2.01-3.33 2.01-2.1 0-3.78-1.38-3.99-3.84H17.9c.09-.54.12-1.08.12-1.62 0-4.95-3.39-8.22-8.19-8.22-4.92 0-8.34 3.33-8.34 8.58 0 5.22 3.51 8.58 8.34 8.58 4.11 0 6.87-2.43 7.77-5.49Zm12.666 5.22h4.74l-5.52-8.34 5.46-8.28h-4.5l-3.06 5.13-3.39-5.13h-4.74l5.49 8.28-5.43 8.34h4.5l3.03-5.16 3.42 5.16Zm11.22-14.22v-2.4h-4.2v24.54h4.2v-10.29c1.02 1.35 2.88 2.64 5.49 2.64 4.26 0 7.59-3.45 7.59-8.64s-3.33-8.52-7.59-8.52c-2.58 0-4.5 1.26-5.49 2.67Zm8.79 5.85c0 3.15-2.13 4.95-4.41 4.95-2.25 0-4.38-1.74-4.38-4.89 0-3.15 2.13-4.89 4.38-4.89 2.28 0 4.41 1.68 4.41 4.83Zm14.483-5.07c2.16 0 3.9 1.38 3.96 3.57h-7.89c.33-2.28 1.92-3.57 3.93-3.57Zm7.89 8.22h-4.53c-.54 1.11-1.53 2.01-3.33 2.01-2.1 0-3.78-1.38-3.99-3.84h12.15c.09-.54.12-1.08.12-1.62 0-4.95-3.39-8.22-8.19-8.22-4.92 0-8.34 3.33-8.34 8.58 0 5.22 3.51 8.58 8.34 8.58 4.11 0 6.87-2.43 7.77-5.49Zm7.686-3.06c0-3.21 1.5-4.17 3.99-4.17h1.11v-4.41c-2.31 0-4.05 1.11-5.1 2.82v-2.58h-4.2v16.62h4.2v-8.28Zm7.928 8.28h4.2v-16.62h-4.2v16.62Zm2.13-18.6c1.47 0 2.58-1.08 2.58-2.46s-1.11-2.46-2.58-2.46c-1.5 0-2.58 1.08-2.58 2.46s1.08 2.46 2.58 2.46Zm13.36 5.16c2.16 0 3.9 1.38 3.96 3.57h-7.89c.33-2.28 1.92-3.57 3.93-3.57Zm7.89 8.22h-4.53c-.54 1.11-1.53 2.01-3.33 2.01-2.1 0-3.78-1.38-3.99-3.84h12.15c.09-.54.12-1.08.12-1.62 0-4.95-3.39-8.22-8.19-8.22-4.92 0-8.34 3.33-8.34 8.58 0 5.22 3.51 8.58 8.34 8.58 4.11 0 6.87-2.43 7.77-5.49Zm15.126 5.22h4.2v-9.75c0-4.59-2.76-7.11-6.63-7.11-2.13 0-3.93.9-5.01 2.31v-2.07h-4.2v16.62h4.2v-9.18c0-2.67 1.47-4.11 3.75-4.11 2.22 0 3.69 1.44 3.69 4.11v9.18Zm7.114-8.31c0 5.22 3.42 8.58 8.22 8.58 4.14 0 6.93-2.34 7.83-5.88h-4.53c-.51 1.5-1.59 2.28-3.33 2.28-2.34 0-3.9-1.74-3.9-4.98s1.56-5.01 3.9-5.01c1.74 0 2.85.9 3.33 2.31h4.53c-.9-3.72-3.69-5.88-7.83-5.88-4.8 0-8.22 3.36-8.22 8.58Zm26.266-5.13c2.16 0 3.9 1.38 3.96 3.57h-7.89c.33-2.28 1.92-3.57 3.93-3.57Zm7.89 8.22h-4.53c-.54 1.11-1.53 2.01-3.33 2.01-2.1 0-3.78-1.38-3.99-3.84h12.15c.09-.54.12-1.08.12-1.62 0-4.95-3.39-8.22-8.19-8.22-4.92 0-8.34 3.33-8.34 8.58 0 5.22 3.51 8.58 8.34 8.58 4.11 0 6.87-2.43 7.77-5.49Z"
        fill="#58A9A5" />
</svg>