<svg width="161" height="53" fill="none" xmlns="http://www.w3.org/2000/svg">
    <path
        d="M57.105 14.325V39H71.63v-5.25h-7.665V14.325h-6.86Zm36.652 14.84c0-6.23-4.445-10.045-10.29-10.045-5.845 0-10.29 3.815-10.29 10.045 0 6.265 4.41 10.08 10.255 10.08 5.845 0 10.325-3.815 10.325-10.08Zm-13.58 0c0-2.8 1.54-4.095 3.29-4.095s3.325 1.295 3.325 4.095c0 2.835-1.61 4.13-3.36 4.13-1.785 0-3.255-1.295-3.255-4.13Zm15.251 0c0 6.265 4.095 10.08 9.94 10.08 4.97 0 8.61-2.905 9.59-7.77h-7.28c-.385 1.225-1.155 1.925-2.45 1.925-1.68 0-2.8-1.4-2.8-4.235 0-2.8 1.12-4.2 2.8-4.2 1.295 0 2.065.735 2.45 1.925h7.28c-.98-4.935-4.62-7.77-9.59-7.77-5.845 0-9.94 3.815-9.94 10.045Zm42.47-9.8h-6.895V29.9c0 2.275-1.26 3.605-3.255 3.605-1.96 0-3.255-1.33-3.255-3.605V19.365h-6.825v11.41c0 5.18 2.835 8.4 7.385 8.4 2.765 0 4.83-1.295 5.95-2.975V39h6.895V19.365Zm20.424 13.86c-.035-7.455-10.5-5.215-10.5-8.015 0-.735.595-1.19 1.715-1.19 1.47 0 2.345.735 2.555 1.96h6.195c-.455-3.885-3.255-6.86-8.61-6.86-5.32 0-8.155 2.835-8.155 6.265 0 7.21 10.43 4.865 10.43 7.735 0 .7-.665 1.26-1.82 1.26-1.435 0-2.52-.7-2.695-1.995h-6.65c.28 3.92 3.92 6.86 9.38 6.86 5.075 0 8.155-2.59 8.155-6.02Z"
        fill="#58A9A5" />
    <path d="M4 28v21h21" stroke="#58A9A5" stroke-width="8" stroke-linecap="round" />
    <path d="M41 28v21H20M41 28 28.859 15.467 17 4" stroke="#58A9A5" stroke-width="8"
        stroke-linecap="round" />
    <path d="m4 28 12.141-12.533L28 4" stroke="#58A9A5" stroke-width="8" stroke-linecap="round" />
</svg>